<svg width="97" height="85" viewBox="0 0 97 85" fill="none" xmlns="http://www.w3.org/2000/svg">
<path fill-rule="evenodd" clip-rule="evenodd" d="M48 85C74.8913 85 97 65.5929 97 42C97 18.4071 74.8913 0 48 0C21.1087 0 0 18.4071 0 42C0 65.5929 21.1087 85 48 85Z" fill="#FF9900"/>
<path d="M68.9288 43C67.4296 41.2976 65.9637 40.6355 62.9385 40C66.7909 38.2744 68.3952 35.1325 67.9304 31C67.775 29.5015 66.7225 28.1008 65.9336 27C65.1442 25.8989 64.2837 24.6696 62.9385 24C61.5943 23.3295 60.5212 23.3519 58.945 23C57.3683 22.6481 54.9971 22.1588 52.9547 22V14H46.9644V22C45.9303 22 44.0922 21.9546 41.9725 22V14H36.9806V22C36.1272 22.0228 34.6416 22 32.987 22H25V28H28.9935C30.9584 28 31.6526 28.4564 31.9887 30V40C32.2476 40 32.8318 39.9773 32.987 40H31.9887V53C31.7821 54.1576 31.2847 55 29.9919 55H25.9984L25 61H31.9887C32.48 61 33.0543 60.9897 33.9854 61C34.916 61.0115 36.5151 61 36.9806 61V70H41.9725V62C43.058 62.0233 44.8961 62 46.9644 62V70H52.9547V61C55.0751 60.9093 57.304 61.2506 58.945 61C60.5867 60.7494 62.4377 60.5339 63.9369 60C65.4359 59.4668 65.9239 58.7947 66.932 58C67.9407 57.2061 69.2667 56.2262 69.9271 55C70.5854 53.7738 70.7451 52.6123 70.9255 51C71.2631 47.845 70.4282 44.7031 68.9288 43ZM42.9709 28C43.1519 28 43.129 28.0115 43.9692 28C44.8099 27.9883 45.4102 28.0115 45.966 28C46.5219 27.9888 47.0188 27.9319 47.9628 28C48.9064 28.0681 50.3118 27.8867 50.9579 28C51.604 28.1133 52.1798 28.7389 52.9547 29C53.7309 29.2609 54.4866 29.6255 54.9514 30C55.4172 30.3745 55.6272 30.421 55.9498 31C56.2734 31.5789 56.9482 32.2509 56.9482 33C56.9482 33.6358 56.1822 34.4775 55.9498 35C55.7178 35.5221 55.4162 35.6481 54.9514 36C54.4865 36.352 54.4443 36.7391 53.953 37C53.4623 37.2609 52.7187 37.8412 51.9563 38C51.194 38.159 50.528 37.9093 49.9595 38C49.3907 38.0909 48.816 37.9661 47.9628 38C47.1094 38.0339 46.4053 38.9888 45.966 39C45.5263 39.0112 44.7322 39.0112 43.9692 39C43.2062 38.9888 43.1004 38 42.9709 38V28ZM58.945 51C58.6987 51.5225 58.3341 52.6138 57.9466 53C57.5584 53.3853 56.5829 53.7053 55.9498 54C55.3169 54.2956 55.5455 53.8183 54.9514 54C54.3565 54.1824 52.7957 54.8633 51.9563 55C51.115 55.1363 50.5936 54.9429 49.9595 55C49.3264 55.0569 48.8421 54.9656 47.9628 55C47.0841 55.0334 46.457 55 45.966 55C45.4747 55 44.719 55.0111 43.9692 55C43.2191 54.9894 43.1779 55 42.9709 55V44C43.1775 44 42.9478 44.0231 43.9692 44C44.9908 43.9771 46.318 44 46.9644 44C47.6107 44 48.8216 43.9314 49.9595 44C51.0964 44.0676 52.1784 43.8638 52.9547 44C53.73 44.1365 54.033 44.7159 54.9514 45C55.869 45.2837 56.3792 45.5913 56.9482 46C57.517 46.4094 58.5573 46.3641 58.945 47C59.3336 47.6355 58.945 48.1824 58.945 49C58.9448 49.6364 59.1909 50.4774 58.945 51Z" fill="white"/>
</svg>
