<svg width="16" height="11" viewBox="0 0 16 11" fill="none" xmlns="http://www.w3.org/2000/svg">
<path d="M14.5011 4.5C14.1747 2.14019 11.8147 0.5 9.50658 0.5H5.51097C3.20321 0.5 0.843149 2.14019 0.516449 4.5C0.479439 4.76879 0.516449 8.22818 0.516449 8.5C0.516449 9.72605 1.32724 10.5 2.51426 10.5C3.32882 10.5 4.14768 10.2525 4.51206 9.5L5.51097 7.5H9.50658L11.5044 9.5C11.8684 10.2525 11.6887 10.5 12.5033 10.5C13.6903 10.5 15.5 9.72605 15.5 8.5C15.5 8.22852 14.5381 4.76912 14.5011 4.5ZM10.5055 1.5C10.9018 1.5 11.5044 2.10322 11.5044 2.5C11.5044 2.89678 10.9018 3.5 10.5055 3.5C10.1091 3.5 10.5055 2.89678 10.5055 2.5C10.5055 2.10322 10.1091 1.5 10.5055 1.5ZM5.51097 4.5H4.51206V5.5H3.51316V4.5H2.51426V3.5H3.51316V2.5H4.51206V3.5H5.51097V4.5ZM9.50658 4.5C9.11023 4.5 8.50768 3.89678 8.50768 3.5C8.50768 3.10322 9.11023 3.5 9.50658 3.5C9.90293 3.5 10.5055 3.10322 10.5055 3.5C10.5062 3.89678 9.90326 4.5 9.50658 4.5ZM10.5055 5.5C10.1091 5.5 10.5055 5.89678 10.5055 5.5C10.5055 5.10322 10.1091 4.5 10.5055 4.5C10.9018 4.5 11.5044 5.10322 11.5044 5.5C11.5044 5.89678 10.9018 5.5 10.5055 5.5ZM12.5033 4.5C12.1069 4.5 11.5044 3.89678 11.5044 3.5C11.5044 3.10322 12.1069 3.5 12.5033 3.5C12.5033 3.10322 12.8996 3.5 12.5033 3.5C12.5033 3.89678 12.8996 4.5 12.5033 4.5Z" fill="#FF1311"/>
</svg>
