<svg width="360" height="349" viewBox="0 0 360 349" fill="none" xmlns="http://www.w3.org/2000/svg">
<path d="M86.0881 70.1357C92.67 58.8935 102.368 48.4693 113.066 40.1504C115.684 38.0081 118.254 36.0403 121.059 34.1534C123.943 32.3929 127.023 30.6386 130.051 29.1558C133.035 27.5714 135.943 26.462 139.044 25.1578C142.189 23.9998 144.809 23.0296 148.036 22.1593C173.74 14.7578 201.906 16.7655 225.971 29.1558C228.997 30.6436 232.084 32.3904 234.964 34.1534C237.764 36.0478 240.344 38.0032 242.957 40.1504C245.645 42.211 248.479 44.8485 250.95 47.147C252.166 48.3124 252.782 48.933 253.948 50.1455L255.946 52.1446L257.944 54.1436C259.019 55.423 259.903 56.8374 260.942 58.1416C261.932 59.4682 262.975 60.7933 263.939 62.1397C264.927 63.4786 266.074 64.7492 266.937 66.1377L267.936 68.1367L268.935 70.1357L326.887 170.087C328.217 172.365 332.476 179.186 334.88 185.079C337.439 191.204 339.527 197.455 340.875 204.07V207.069C341.029 207.897 341.742 208.235 341.874 209.068C342.128 210.736 341.68 212.389 341.874 214.065C342.188 217.427 342.878 220.688 342.873 224.06C342.98 227.437 343.077 230.696 342.873 234.055C342.52 237.39 341.527 240.77 340.875 244.051C340.328 247.358 339.715 250.815 338.877 254.046C337.902 257.227 337.128 259.964 335.879 263.041C334.726 266.16 333.305 270.041 331.883 273.036C330.341 275.97 328.682 278.243 326.887 281.032C325.179 283.874 322.851 286.351 320.892 289.028C318.83 291.637 317.194 294.605 314.897 297.025C312.679 299.509 310.347 301.745 307.903 304.021C305.366 306.213 302.652 308.059 299.909 310.018C297.239 312.056 294.773 314.228 291.916 316.015C288.979 317.686 286.012 319.619 282.924 321.013C279.885 322.508 276.095 323.806 272.932 325.011C271.336 325.564 269.55 325.505 267.936 326.01C267.128 326.256 266.748 326.787 265.938 327.01L262.94 328.009C256.408 329.71 250.536 330.576 243.956 331.008H238.96H237.961H126.055C121.91 330.963 118.835 331.348 111.067 331.008C104.48 330.537 98.6128 328.746 92.0831 327.01H89.0856L87.0873 326.01C85.4785 325.497 83.6779 325.594 82.0915 325.011C78.9261 323.813 76.1375 322.51 73.099 321.013C70.0132 319.614 67.0431 317.689 64.1065 316.015C61.2544 314.218 57.7821 312.061 55.114 310.018C52.3738 308.057 49.6595 306.208 47.1207 304.021C44.6888 301.73 42.3396 299.514 40.1265 297.025C37.8314 294.602 36.1954 291.637 34.1315 289.028C32.1821 286.343 29.8398 283.876 28.1366 281.032C26.3462 278.24 24.6725 274.975 23.1407 272.037C21.7209 269.039 20.2954 266.163 19.1441 263.041C17.9008 259.962 17.1039 257.232 16.1466 254.046C15.3036 250.817 14.6928 247.358 14.1483 244.051C13.5017 240.77 13.4873 237.39 13.1491 234.055C12.9427 230.696 13.0397 227.437 13.1491 224.06C13.1466 220.688 12.8408 217.428 13.1491 214.065C13.624 210.725 14.3691 207.351 15.1474 204.07C16.525 197.465 18.5464 191.184 21.1424 185.079C21.8113 183.564 22.442 181.582 23.1407 180.082C23.8594 178.599 24.3682 177.532 25.1391 176.084L26.1382 174.085L27.1374 173.085L86.0881 70.1357L71.1006 61.1402L12.1499 163.09L11.1508 165.089L9.15243 167.088C8.2523 168.777 7.99207 170.355 7.1541 172.086C6.33354 173.836 4.9349 176.312 4.15661 178.083C1.12053 185.217 -1.21134 192.328 -2.83755 200.072C-3.74016 203.918 -4.29381 208.149 -4.83588 212.066C-5.20886 216.006 -4.82842 219.106 -4.83588 223.061C-4.95523 227.021 -5.08702 231.117 -4.83588 235.055C-4.45295 238.965 -4.58268 243.206 -3.83671 247.049C-3.19021 250.922 -1.83384 254.267 -0.839216 258.044C0.269786 261.773 1.71276 266.435 3.15744 270.038C4.51013 273.685 5.48314 276.534 7.1541 280.033C8.93447 283.472 11.0629 286.76 13.1491 290.028C15.1483 293.348 17.8556 296.891 20.1432 300.023C22.5453 303.078 24.4594 306.177 27.1374 309.019C29.7309 311.925 32.2761 314.344 35.1307 317.015C38.0972 319.586 41.9172 322.705 45.1224 325.011C48.2529 327.399 50.7655 328.91 54.1148 331.008C57.5513 332.979 61.4902 335.356 65.1057 337.005C68.6739 338.753 72.3791 339.607 76.0965 341.003C77.9589 341.685 80.2017 342.402 82.0915 343.002L84.0898 344.002L87.0873 345.001C94.7434 347.022 102.377 347.464 110.068 348C113.679 348.183 118.986 349.031 120.06 348.999H237.961H238.96C240.872 348.954 243.046 348.086 244.955 348C252.636 347.506 260.28 346.985 267.936 345.001L270.934 344.002C271.886 343.741 272.984 343.29 273.931 343.002C275.823 342.412 277.057 342.652 278.927 342.003C282.639 340.602 286.35 338.748 289.918 337.005C293.536 335.361 297.47 332.979 300.909 331.008C304.263 328.923 307.767 327.391 310.9 325.011C314.108 322.707 316.931 319.589 319.893 317.015C322.762 314.359 325.285 311.917 327.886 309.019C330.569 306.182 333.477 303.078 335.879 300.023C338.179 296.901 339.87 294.343 341.874 291.027C343.965 287.764 346.079 284.467 347.869 281.032C349.543 277.536 351.507 273.683 352.865 270.038C354.317 266.437 354.734 262.767 355.863 259.043C356.855 255.264 358.211 250.922 358.86 247.049C359.616 243.208 360.458 239.965 360.858 236.054C361.11 232.117 360.973 228.02 360.858 224.06C360.856 220.105 360.237 216.009 359.859 212.066C359.633 210.1 359.161 208.025 358.86 206.069C358.703 205.092 359.039 204.043 358.86 203.071L357.861 200.072C356.27 192.316 353.866 185.241 350.867 178.083C348.089 171.249 342.968 162.956 341.874 161.091L284.922 61.1402L282.924 59.1411L281.924 56.1426C280.915 54.5259 280.078 53.7141 278.927 52.1446C277.803 50.5701 276.091 48.6967 274.93 47.147C273.719 45.6196 272.194 43.6446 270.934 42.1495C270.3 41.4031 270.583 40.8844 269.934 40.1504L267.936 38.1514C266.571 36.7282 264.365 35.5196 262.94 34.1534C260.051 31.4482 257.093 28.5848 253.948 26.1573C250.874 23.6455 248.247 21.3725 244.955 19.1607C241.586 17.0829 237.505 14.9167 233.964 13.1637C230.463 11.309 227.613 9.67865 223.973 8.16612C220.3 6.77757 216.754 5.20701 212.982 4.16808C209.227 3.02996 204.816 2.95755 200.992 2.16906C197.158 1.50206 193.873 0.48494 190.001 0.170036C186.132 -0.244049 181.893 0.236984 178.011 0.170036C174.13 0.229546 169.89 -0.23909 166.021 0.170036C162.147 0.475021 158.867 1.51941 155.03 2.16906C151.209 2.95755 146.795 3.03492 143.04 4.16808C139.266 5.19461 135.73 6.79492 132.05 8.16612C128.409 9.68112 124.562 11.3139 121.059 13.1637C117.513 14.9118 114.441 17.0878 111.067 19.1607C107.77 21.3626 104.151 23.653 101.076 26.1573C88.5334 35.9218 78.7518 48.0382 71.1006 61.1402L86.0881 70.1357Z" fill="url(#paint0_linear_589_10478)"/>
<path d="M110.068 83.1294C115.044 74.6766 121.125 67.2895 129.052 61.1402C130.982 59.5384 132.981 58.5555 135.047 57.1421C137.193 55.8528 139.789 54.2326 142.041 53.1441C144.247 51.9564 146.74 51.1324 149.035 50.1455C151.383 49.3025 153.62 47.7818 156.03 47.147C175.171 41.6201 196.158 43.9449 213.981 53.1441C216.234 54.2351 217.833 55.8552 219.976 57.1421C222.04 58.5629 224.044 59.5359 225.971 61.1402C227.97 62.6552 230.124 64.4442 231.966 66.1377C232.869 67.0006 234.093 68.2386 234.964 69.1362L235.963 70.1357L236.962 72.1348L239.959 74.1338L241.958 77.1323C242.704 78.1266 243.31 80.084 243.956 81.1304L245.954 84.1289L303.906 183.08C304.888 184.796 305.645 186.685 306.904 189.077C307.473 190.171 307.39 190.95 307.903 192.076L309.901 195.075C311.801 199.649 312.913 205.163 313.898 210.067L314.897 211.067C315.011 211.682 314.797 212.451 314.897 213.066C315.081 214.303 315.752 215.824 315.896 217.064C316.112 219.556 315.913 222.558 315.896 225.06C316.212 245.105 308.413 264.468 294.914 279.033C293.27 280.896 291.725 282.325 289.918 284.031C288.023 285.65 285.964 287.583 283.923 289.028C281.948 290.556 280.036 291.685 277.928 293.027C275.742 294.249 273.226 295.006 270.934 296.025C268.688 297.146 266.274 298.114 263.939 299.024C262.756 299.43 262.135 299.646 260.942 300.023C260.343 300.207 259.545 300.859 258.944 301.023H256.945C252.104 302.3 246.889 303.686 241.958 304.021H237.961H126.055C122.091 303.994 118.479 304.272 113.066 304.021C108.137 303.649 102.914 302.327 98.0781 301.023H97.0789L95.0806 300.023C93.8895 299.639 92.2601 299.457 91.0839 299.024C88.7441 298.124 86.3351 297.146 84.0898 296.025C81.7972 295.006 80.2805 294.249 78.0948 293.027C75.9912 291.678 73.0725 290.558 71.1006 289.028C69.0592 287.583 68.007 285.643 66.1048 284.031C64.307 282.313 61.7485 280.9 60.1098 279.033C58.3891 277.236 56.6681 274.97 55.114 273.036C53.6718 271.02 52.3805 269.174 51.1173 267.039C49.7672 264.959 49.2811 262.23 48.1199 260.043C47.073 257.799 45.9703 255.379 45.1224 253.046C44.1824 250.753 42.8559 248.42 42.1249 246.05C41.5107 243.642 41.5211 241.515 41.1257 239.053C40.6309 236.613 40.3926 234.533 40.1265 232.056C39.9898 229.564 40.032 226.562 40.1265 224.06C40.1091 221.561 39.9226 219.553 40.1265 217.064C40.4995 214.594 40.5314 211.495 41.1257 209.068C42.1352 204.171 44.192 199.632 46.1215 195.075L47.1207 192.076C47.6578 190.965 48.5446 189.166 49.119 188.078L50.1182 187.078V186.079L110.068 83.1294L94.0814 74.1338L35.1307 177.083L34.1315 178.083L33.1324 180.082C32.4287 181.411 31.793 182.721 31.1341 184.08L29.1357 188.078C26.7611 193.667 25.3931 200.034 24.1399 206.069C23.4213 209.064 22.5817 212.012 22.1416 215.065C21.8681 218.134 22.1341 220.978 22.1416 224.06C22.0371 227.145 21.9576 229.984 22.1416 233.056C22.4549 236.106 22.5465 239.049 23.1407 242.052C23.6356 245.079 24.3732 248.091 25.1391 251.047C26.0193 253.961 26.9952 257.226 28.1366 260.043C29.1859 262.902 30.8377 265.291 32.1332 268.039C33.5406 270.727 34.4863 273.478 36.1299 276.035C37.6865 278.643 39.3453 281.569 41.1257 284.031C43.018 286.414 45.0171 288.813 47.1207 291.027C49.1423 293.309 50.8952 294.924 53.1157 297.025C55.4431 299.021 58.6025 301.231 61.109 303.022C63.5458 304.894 65.5022 306.37 68.1031 308.019C70.7886 309.542 73.2742 311.745 76.0965 313.017C78.8715 314.388 82.1996 314.917 85.0889 316.015C86.5386 316.548 87.6161 317.546 89.0856 318.014H92.0831L94.0814 319.014C100.047 320.603 106.034 321.573 112.066 322.012C119.049 322.322 121.969 321.973 126.055 322.012H237.961H238.96H242.957C248.987 321.613 254.974 320.576 260.942 319.014L262.94 318.014C263.684 317.811 265.199 318.24 265.938 318.014C267.41 317.551 268.475 316.521 269.934 316.015C272.821 314.909 276.154 314.388 278.927 313.017C281.749 311.747 284.232 309.542 286.92 308.019C289.526 306.38 292.474 304.891 294.914 303.022C297.422 301.234 299.585 299.026 301.908 297.025C304.141 294.939 305.876 293.304 307.903 291.027C310.009 288.813 312.005 286.414 313.898 284.031C315.688 281.576 317.332 278.638 318.893 276.035C320.542 273.483 322.472 271.721 323.889 269.038C325.187 266.293 325.835 262.899 326.887 260.043C328.036 257.226 328.987 254.955 329.884 252.047C330.643 249.089 331.388 246.079 331.883 243.051C332.484 240.051 333.55 236.106 333.881 233.056C334.06 229.986 333.983 227.145 333.881 224.06C333.891 220.978 333.165 218.137 332.882 215.065C332.703 213.535 333.111 211.592 332.882 210.067C332.76 209.306 332.024 208.824 331.883 208.068V206.069C330.657 200.024 328.228 193.687 325.888 188.078C323.67 182.653 320.343 176.572 318.893 174.085L260.942 75.1333L259.943 73.1343L258.944 71.1353C258.153 69.8608 257.853 68.3621 256.945 67.1372L253.948 63.1392C252.995 61.9465 251.932 61.311 250.95 60.1407L248.952 58.1416L247.953 57.1421C246.886 56.0362 246.069 54.2078 244.955 53.1441C242.695 51.0464 240.418 49.0265 237.961 47.147C235.577 45.1807 232.522 43.8876 229.968 42.1495C227.332 40.5452 224.742 38.5082 221.975 37.1519C199.991 25.8253 174.549 23.3787 151.034 30.1553C148.08 30.9488 144.921 32.1001 142.041 33.1539C139.209 34.3515 136.773 35.6989 134.048 37.1519C131.278 38.5033 128.693 40.5452 126.055 42.1495C123.496 43.8777 120.448 45.1857 118.061 47.147C108.287 54.7419 100.126 63.8213 94.0814 74.1338L110.068 83.1294Z" fill="url(#paint1_linear_589_10478)"/>
<path d="M133.049 97.1225C136.418 91.4617 140.878 86.112 146.038 82.1299C147.276 81.0711 148.709 80.0736 150.035 79.1313C151.442 78.3131 152.552 77.8266 154.031 77.1323C155.459 76.3413 157.538 75.8028 159.027 75.1333C160.574 74.6052 161.432 73.5335 163.024 73.1343C175.603 69.4819 189.412 71.1268 200.992 77.1323C202.472 77.8241 204.578 78.3156 205.988 79.1313C207.313 80.0761 208.744 81.0711 209.985 82.1299C211.295 83.0994 211.771 84.0424 212.982 85.1284C213.574 85.6888 214.411 86.5447 214.98 87.1274L215.98 88.1269L216.979 89.1264L217.978 91.1255L219.976 93.1245C220.478 93.7717 220.55 94.4193 220.975 95.1235L221.975 97.1225L279.926 197.074C280.866 198.71 282.235 199.71 282.924 201.072C283.297 201.803 283.592 203.321 283.923 204.07L284.922 206.069C286.16 209.092 287.3 211.871 287.919 215.065V216.064C287.994 216.463 287.857 217.662 287.919 218.063C288.031 218.867 288.822 219.256 288.919 220.062C289.038 221.681 288.948 223.433 288.919 225.06C289.147 238.063 283.845 251.446 274.93 261.042C273.861 262.284 273.104 262.903 271.933 264.041C270.68 265.087 269.279 266.109 267.936 267.039C266.656 268.056 265.3 269.143 263.939 270.038C262.507 270.811 260.441 271.392 258.944 272.037C257.494 272.783 256.456 273.421 254.947 274.036L252.949 275.035C252.558 275.154 251.343 274.929 250.95 275.035H249.951C246.798 275.891 244.236 276.794 240.959 277.034H237.961H236.962H126.055C122.273 277.027 118.117 277.193 115.064 277.034C111.792 276.764 108.22 275.911 105.072 275.035H104.073H103.074C102.301 274.777 100.84 274.321 100.076 274.036C98.5646 273.433 97.5319 272.778 96.0798 272.037C94.5804 271.395 93.5178 270.809 92.0831 270.038C90.7254 269.138 88.3679 268.056 87.0873 267.039C85.7421 266.112 85.3505 265.077 84.0898 264.041C82.9261 262.893 81.1623 261.287 80.0931 260.043C78.9468 258.872 78.1375 258.306 77.0956 257.044C76.1607 255.698 74.9187 254.467 74.0981 253.046C73.1905 251.68 72.8856 249.484 72.0998 248.049C71.4259 246.556 70.646 245.593 70.1015 244.051C69.4624 242.54 68.6029 240.608 68.1031 239.053C67.7202 237.466 67.3452 235.67 67.104 234.055C66.7584 232.459 67.3029 231.672 67.104 230.057C67.0368 228.433 66.0252 226.686 66.1048 225.06C66.0725 223.431 66.9995 221.684 67.104 220.062C67.3775 218.46 67.6929 216.642 68.1031 215.065C68.7422 211.876 69.8325 209.082 71.1006 206.069L72.0998 203.071C72.4579 202.332 72.721 201.801 73.099 201.072V200.072C73.2855 199.715 73.8694 199.474 74.0981 199.073L133.049 97.1225L118.061 88.1269L58.1115 190.077C57.8653 190.508 58.3726 190.586 58.1115 191.076L57.1123 193.076C56.6026 194.045 55.5914 195.087 55.114 196.074L54.1148 199.073C52.4041 203.117 51.0034 206.737 50.1182 211.067C49.5861 213.212 49.4597 215.881 49.119 218.063C48.9474 220.265 49.0966 221.851 49.119 224.06C49.0295 226.27 49.0046 228.853 49.119 231.057C49.3652 233.246 49.6731 235.894 50.1182 238.053C50.4613 240.233 50.5802 241.916 51.1173 244.051C51.7713 246.148 52.2752 248.014 53.1157 250.048C53.8616 252.118 55.1907 254.051 56.1132 256.045C57.1476 257.981 57.9072 260.199 59.1107 262.042C60.2271 263.936 61.8342 266.249 63.1073 268.039C64.4898 269.75 65.5748 271.447 67.104 273.036C68.5536 274.695 70.5134 275.507 72.0998 277.034C73.7882 278.455 75.2854 279.76 77.0956 281.032C78.8387 282.391 80.234 283.83 82.0915 285.03C84.026 286.102 86.0599 287.134 88.0864 288.029C90.0657 289.023 92.0176 290.227 94.0814 291.027C95.1183 291.412 96.0271 291.685 97.0789 292.027H99.0773L101.076 293.027C105.35 294.187 109.686 294.686 114.065 295.026C118.69 295.244 122.151 295.006 126.055 295.026H237.961H241.958C246.337 294.721 250.668 294.162 254.947 293.027L255.946 292.027C256.478 291.883 257.415 292.188 257.944 292.027C258.999 291.692 259.895 291.385 260.942 291.027C263.001 290.217 264.958 289.026 266.937 288.029C268.966 287.134 270.997 286.104 272.932 285.03C274.792 283.838 277.181 283.391 278.927 282.032C280.735 280.757 282.242 278.463 283.923 277.034C285.519 275.517 286.467 274.693 287.919 273.036C299.89 260.128 307.189 242.756 306.904 225.06C306.923 222.851 307.088 220.265 306.904 218.063C306.774 216.967 306.064 216.158 305.904 215.065C305.817 214.519 306.004 213.609 305.904 213.066V211.067C305.042 206.732 303.586 203.129 301.908 199.073L299.909 196.074C299.457 195.072 299.413 194.048 298.91 193.076C297.841 191.027 296.882 189.767 295.913 188.078L237.961 88.1269C235.721 84.4423 232.895 80.4277 229.968 77.1323L228.969 76.1328L227.969 75.1333C227.199 74.3423 226.769 73.8955 225.971 73.1343C224.34 71.6441 222.743 69.4707 220.975 68.1367C219.277 66.716 217.795 65.4008 215.98 64.1387C214.08 63.008 211.981 62.0973 209.985 61.1402C194.242 53.0072 174.981 51.2405 158.028 56.1426C155.892 56.7005 154.112 57.4027 152.033 58.1416C150.006 59.0219 147.985 60.0839 146.038 61.1402C144.044 62.0973 141.943 63.0055 140.043 64.1387C138.223 65.3958 136.745 66.7184 135.047 68.1367C128.043 73.5645 122.5 80.6065 118.061 88.1269L133.049 97.1225Z" fill="url(#paint2_linear_589_10478)"/>
<path d="M157.029 110.116C158.792 107.245 160.634 104.935 163.024 103.12C163.573 102.604 163.436 102.589 164.023 102.12C164.694 101.773 165.318 101.421 166.021 101.121C166.67 100.726 168.337 100.473 169.019 100.121C169.765 99.9078 170.244 99.2877 171.017 99.1216C171.753 98.8538 172.257 99.3373 173.015 99.1216C173.809 99.0447 174.208 98.1444 175.014 98.122C175.804 97.9956 177.211 98.1865 178.011 98.122C178.812 98.1865 179.219 98.0005 180.01 98.122C180.813 98.1444 182.219 99.0372 183.007 99.1216C183.77 99.3249 184.267 98.8587 185.005 99.1216C185.776 99.2852 186.263 99.9004 187.004 100.121C187.693 100.458 188.351 100.731 189.002 101.121C189.708 101.416 190.327 101.778 191 102.12C191.587 102.589 192.447 102.606 192.999 103.12C193.618 103.544 194.415 104.64 194.997 105.119C195.276 105.376 194.724 105.853 194.997 106.118H195.996C196.24 106.423 196.739 106.823 196.995 107.118C197.217 107.455 197.753 107.797 197.995 108.117C198.253 108.42 197.786 108.755 197.995 109.117L198.994 111.116L250.95 200.072C254.511 206.286 259.59 214.795 259.943 216.064C260.522 217.535 261.685 219.579 261.941 221.062C261.976 221.245 261.911 221.875 261.941 222.061V223.061C261.961 223.81 261.981 224.304 261.941 225.06C262.011 225.809 261.926 227.3 261.941 228.058C261.802 228.812 262.135 229.301 261.941 230.057C261.857 230.826 261.084 231.29 260.942 232.056C260.659 232.793 260.278 233.331 259.943 234.055C259.707 234.814 259.24 235.313 258.944 236.054C258.528 236.739 258.409 238.398 257.944 239.053C257.566 239.762 257.375 240.38 256.945 241.052C256.418 241.647 255.514 241.504 254.947 242.052C254.452 242.671 254.485 243.483 253.948 244.051C253.334 244.524 252.591 244.633 251.949 245.05C251.365 245.553 250.563 246.6 249.951 247.049C249.272 247.374 248.657 247.778 247.953 248.049C247.299 248.421 246.636 248.728 245.954 249.048C245.594 249.16 245.313 248.924 244.955 249.048C244.774 249.105 244.14 249.001 243.956 249.048C242.494 249.48 240.587 249.899 238.96 250.048C238.543 250.048 238.376 250.023 237.961 250.048H236.962H126.055C122.454 250.058 116.759 250.112 116.063 250.048C114.447 249.876 113.524 249.492 112.066 249.048H111.067C110.712 248.919 110.419 249.184 110.068 249.048C109.382 248.743 107.727 248.416 107.071 248.049C106.367 247.783 105.756 247.369 105.072 247.049C104.461 246.595 104.66 245.551 104.073 245.05C103.427 244.641 102.696 244.512 102.075 244.051C101.545 243.473 100.574 242.671 100.076 242.052C99.5045 241.508 99.6094 240.64 99.0773 240.052C98.6496 239.378 97.4594 239.76 97.0789 239.053C96.6115 238.401 96.4925 236.739 96.0798 236.054C95.7789 235.316 95.3218 234.812 95.0806 234.055C94.7424 233.331 94.3549 232.793 94.0814 232.056C93.9273 231.29 94.1734 230.824 94.0814 230.057C93.8875 229.304 94.2107 227.813 94.0814 227.059C94.0814 226.3 93.0176 225.809 93.0823 225.06C93.035 224.304 94.0789 223.812 94.0814 223.061C94.253 222.329 93.8552 221.788 94.0814 221.062C94.35 219.581 94.4764 217.532 95.0806 216.064C95.2547 215.702 95.9306 215.437 96.0798 215.065C96.2563 214.698 95.8958 214.437 96.0798 214.065H97.0789C97.0938 214.018 96.9571 213.274 97.0789 213.066L157.029 110.116L141.042 101.121L81.0923 204.07C80.9704 204.278 81.1544 204.938 81.0923 205.07V206.069C80.779 206.679 80.389 206.456 80.0931 207.069L79.094 209.068C78.0471 211.565 76.6137 214.445 76.0965 217.064C75.7483 218.358 76.3352 219.75 76.0965 221.062C76.0244 222.393 75.06 223.723 75.0973 225.06C75.0227 226.394 76.0517 227.721 76.0965 229.058C76.273 230.384 75.8031 231.742 76.0965 233.056C76.2879 234.387 76.7873 235.742 77.0956 237.054C77.5208 238.336 77.5577 239.805 78.0948 241.052C78.5374 242.334 79.5436 242.808 80.0931 244.051C80.7545 245.236 81.3306 246.92 82.0915 248.049C82.7653 249.231 83.3239 249.924 84.0898 251.047C84.9626 252.084 86.1349 253.084 87.0873 254.046C87.965 255.082 89.1324 256.087 90.0848 257.044C91.1341 257.887 91.9708 259.289 93.0823 260.043C94.1316 260.888 94.9708 261.29 96.0798 262.042C97.2634 262.662 98.8431 263.522 100.076 264.041C101.263 264.658 101.838 264.537 103.074 265.04C103.698 265.276 104.438 265.824 105.072 266.04H106.071L107.071 267.039C109.654 267.771 112.344 267.801 115.064 268.039C117.332 268.165 122.332 268.036 126.055 268.039H236.962H237.961H239.959C242.687 267.828 245.364 267.753 247.953 267.039L248.952 266.04C249.275 265.953 249.63 266.136 249.951 266.04H251.949C253.18 265.524 254.763 264.663 255.946 264.041C257.179 263.52 257.763 262.667 258.944 262.042C260.055 261.295 261.891 260.888 262.94 260.043C264.049 259.284 264.898 257.9 265.938 257.044C266.898 256.097 268.058 256.079 268.935 255.045C276.32 247.106 280.125 235.714 279.926 225.06C279.958 223.723 280.011 222.391 279.926 221.062C279.847 220.4 279.016 219.722 278.927 219.063C278.875 218.733 278.987 218.391 278.927 218.063V217.064C278.43 214.44 277.948 211.572 276.929 209.068L275.929 208.068C275.658 207.443 275.241 206.682 274.93 206.069C274.43 205.05 272.86 202.681 271.933 201.072L214.98 102.12L213.981 100.121C213.626 99.5309 212.403 98.6551 211.983 98.122L210.984 96.123L209.985 95.1235L208.985 94.124V93.1245C208.513 92.6484 207.474 92.5837 206.987 92.125C205.985 91.2398 205.071 89.9149 203.99 89.1264C202.98 88.2487 202.071 87.9134 200.992 87.1274C199.828 86.4703 198.216 85.6863 196.995 85.1284C187.497 80.1867 176.413 79.0999 166.021 82.1299C164.703 82.4522 163.305 82.7054 162.025 83.1294C160.806 83.6922 159.194 84.4688 158.028 85.1284C156.807 85.6913 156.192 86.4679 155.03 87.1274C153.951 87.911 153.043 88.2487 152.033 89.1264C147.796 92.3871 143.877 96.3871 141.042 101.121L157.029 110.116Z" fill="url(#paint3_linear_589_10478)"/>
<path d="M180.01 124.109C180.015 124.122 180.042 124.119 180.01 124.109C180 124.099 180.054 124.142 180.01 124.109L179.01 123.11C178.757 122.939 178.262 123.311 178.011 123.11C177.845 122.991 178.2 122.276 178.011 122.11H177.012C176.965 122.066 177.084 121.198 177.012 121.111C176.992 121.083 177.012 121.111 177.012 121.111C177.005 121.101 177.034 121.141 177.012 121.111C177.114 121.267 176.895 121.895 177.012 122.11C176.98 121.996 177.052 122.197 177.012 122.11C177.122 122.371 177.937 122.869 178.011 123.11C178.001 123.003 178.051 123.264 178.011 123.11C178.054 123.308 177.999 123.995 178.011 124.109C177.999 124.273 178.024 124.27 178.011 124.109C178.026 123.931 177.907 123.472 178.011 123.11C178.088 122.867 177.904 122.361 178.011 122.11C177.964 122.205 178.056 121.979 178.011 122.11C178.133 121.89 178.904 121.274 179.01 121.111C178.978 121.15 179.112 120.982 179.01 121.111C179.035 121.076 178.098 122.033 178.011 122.11C177.939 122.185 178.111 122.023 178.011 122.11C177.82 122.276 177.199 122.973 177.012 123.11C176.739 123.333 176.269 122.936 176.013 123.11V124.109C176.003 124.109 176.013 124.109 176.013 124.109C175.986 124.062 176.02 124.119 176.013 124.109L232.965 224.06C233.823 225.536 235.416 227.758 234.964 227.059C234.954 227.059 234.964 227.059 234.964 227.059H235.963C235.888 227.094 236.082 227.007 235.963 227.059C236.229 226.922 236.644 226.188 236.962 226.059C237.967 225.618 238.759 226.106 238.96 226.059C238.856 226.069 239.157 226.052 238.96 226.059C238.93 226.059 238.043 226.077 237.961 226.059C237.688 226.042 238.23 225.1 237.961 225.06C237.805 225.028 237.084 225.104 236.962 225.06C236.726 224.998 237.124 225.117 236.962 225.06C236.721 224.963 235.918 225.035 235.963 225.06C236.02 225.092 236.716 224.837 236.962 225.06C237.121 225.214 236.788 225.861 236.962 226.059C237.071 226.168 237.872 225.943 237.961 226.059C238.118 226.283 237.842 226.853 237.961 227.059C237.984 227.106 237.988 227.089 237.961 227.059C237.946 227.042 238.018 227.185 237.961 227.059C237.931 226.98 237.979 227.126 237.961 227.059V226.059C237.857 225.611 237.017 224.472 236.962 223.061H120.06C119.204 223.061 117.646 223.093 118.061 223.061C118.056 223.051 118.061 223.061 118.061 223.061C118.034 223.316 118.071 223.897 118.061 224.06V225.06C118.032 225.278 118.121 225.799 118.061 226.059C118.027 226.235 118.109 225.886 118.061 226.059L117.062 227.059C117.062 227.059 117.082 227.012 117.062 227.059C117.037 227.113 117.04 227.076 117.062 227.059C117.184 226.848 117.907 226.278 118.061 226.059C117.962 226.151 118.148 225.95 118.061 226.059C118.24 225.854 118.904 225.211 119.061 225.06C119.001 225.092 119.309 224.837 119.061 225.06C119.105 225.035 119.302 224.963 119.061 225.06C118.802 225.161 118.442 224.99 118.061 225.06C117.79 225.1 117.328 226.042 117.062 226.059C116.96 226.077 117.1 226.057 117.062 226.059C116.853 226.049 116.195 226.069 116.063 226.059C116.23 226.082 116.766 226.002 117.062 226.059C117.239 226.104 117.935 226.012 118.061 226.059H119.061C119.374 226.188 119.799 226.922 120.06 227.059C120.06 227.059 120.07 227.069 120.06 227.059C120.017 227.128 120.05 227.071 120.06 227.059L180.01 124.109L164.023 115.114L105.072 218.063C104.99 218.2 105.1 218.009 105.072 218.063H104.073C103.954 218.314 104.19 218.82 104.073 219.063C103.984 219.311 104.192 219.829 104.073 220.062C103.69 221.014 103.221 222.148 103.074 223.061C102.91 223.502 103.213 223.616 103.074 224.06C103.104 224.522 102.023 224.594 102.075 225.06C102.015 225.519 102.1 226.59 102.075 227.059C102.182 227.525 102.93 227.585 103.074 228.058C103.114 228.542 102.994 229.566 103.074 230.057C103.273 230.524 102.838 230.596 103.074 231.057C103.216 231.55 103.899 231.568 104.073 232.056C104.362 232.49 104.751 233.641 105.072 234.055C105.306 234.527 105.813 234.604 106.071 235.055C106.434 235.419 106.69 235.72 107.071 236.054C107.376 236.466 107.751 236.667 108.07 237.054C108.48 237.322 108.654 237.815 109.069 238.053C109.424 238.383 109.708 238.75 110.068 239.053C110.501 239.222 110.627 239.914 111.067 240.052C111.46 240.293 112.653 239.847 113.066 240.052C112.852 239.968 113.279 240.139 113.066 240.052C113.175 240.09 113.958 241.005 114.065 241.052C114.957 241.352 115.998 240.913 117.062 241.052C117.776 241.02 117.531 241.079 120.06 241.052H238.96C240.035 240.935 241.058 241.342 241.958 241.052C241.838 241.069 242.075 241.027 241.958 241.052C242.072 241.022 241.846 240.087 241.958 240.052C242.174 239.971 242.733 240.117 242.957 240.052C243.362 239.832 243.566 240.3 243.956 240.052C244.394 239.906 244.528 239.229 244.955 239.053C245.318 238.75 246.601 238.386 246.954 238.053C247.364 237.81 247.552 237.337 247.953 237.054C248.276 236.675 248.646 236.469 248.952 236.054C249.327 235.715 249.596 235.427 249.951 235.055C250.212 234.606 250.719 234.527 250.95 234.055C251.266 233.639 250.659 233.49 250.95 233.056C251.119 232.565 251.813 231.553 251.949 231.057C252.186 230.593 251.743 230.524 251.949 230.057C252.014 229.564 252.916 228.544 252.949 228.058C253.09 227.585 252.834 227.527 252.949 227.059C252.909 226.59 253.016 225.519 252.949 225.06C252.993 224.596 252.939 224.519 252.949 224.06C252.916 223.835 252.966 223.289 252.949 223.061C252.931 222.947 252.971 223.175 252.949 223.061C252.911 222.949 252.976 223.172 252.949 223.061C252.814 222.148 252.308 221.017 251.949 220.062C251.83 219.829 252.039 219.311 251.949 219.063C251.86 218.815 251.065 218.314 250.95 218.063C250.779 217.753 250.593 218.15 249.951 217.064L191 115.114C190.973 115.067 191.015 115.136 191 115.114V114.114C190.864 113.866 190.18 114.3 190.001 114.114C189.84 113.908 190.138 113.34 190.001 113.115C189.83 112.929 189.154 112.314 189.002 112.115C188.91 112.036 189.087 112.199 189.002 112.115C188.828 111.956 188.177 111.272 188.003 111.116C187.63 110.838 187.394 110.359 187.004 110.116C186.68 109.784 186.345 110.429 186.005 110.116C185.577 109.933 185.453 109.28 185.005 109.117C184.613 108.861 184.426 108.348 184.006 108.117C183.531 108.001 182.508 108.201 182.008 108.117C181.545 107.936 181.494 107.266 181.009 107.118C180.494 107.085 179.533 107.113 179.01 107.118C178.498 107.023 178.531 107.18 178.011 107.118C177.492 107.185 176.525 107.016 176.013 107.118C175.488 107.118 175.531 107.093 175.014 107.118C174.531 107.281 173.475 107.931 173.015 108.117C172.518 108.204 172.496 108.008 172.016 108.117C171.604 108.363 171.405 108.854 171.017 109.117C170.572 109.283 169.444 108.926 169.019 109.117C168.678 109.427 168.34 109.781 168.02 110.116C166.553 111.207 165.251 113.172 164.023 115.114L180.01 124.109Z" fill="url(#paint4_linear_589_10478)"/>
<defs>
<linearGradient id="paint0_linear_589_10478" x1="178" y1="0" x2="178" y2="349" gradientUnits="userSpaceOnUse">
<stop stop-color="#302F40"/>
<stop offset="1" stop-color="#2E2D3E" stop-opacity="0"/>
</linearGradient>
<linearGradient id="paint1_linear_589_10478" x1="178" y1="0" x2="178" y2="349" gradientUnits="userSpaceOnUse">
<stop stop-color="#302F40"/>
<stop offset="1" stop-color="#2E2D3E" stop-opacity="0"/>
</linearGradient>
<linearGradient id="paint2_linear_589_10478" x1="178" y1="0" x2="178" y2="349" gradientUnits="userSpaceOnUse">
<stop stop-color="#302F40"/>
<stop offset="1" stop-color="#2E2D3E" stop-opacity="0"/>
</linearGradient>
<linearGradient id="paint3_linear_589_10478" x1="178" y1="0" x2="178" y2="349" gradientUnits="userSpaceOnUse">
<stop stop-color="#302F40"/>
<stop offset="1" stop-color="#2E2D3E" stop-opacity="0"/>
</linearGradient>
<linearGradient id="paint4_linear_589_10478" x1="178" y1="0" x2="178" y2="349" gradientUnits="userSpaceOnUse">
<stop stop-color="#302F40"/>
<stop offset="1" stop-color="#2E2D3E" stop-opacity="0"/>
</linearGradient>
</defs>
</svg>
