<svg width="244" height="232" viewBox="0 0 244 232" fill="none" xmlns="http://www.w3.org/2000/svg">
<path d="M61.0585 185.921C65.4468 193.414 70.9122 200.362 78.0443 205.906C79.79 207.334 82.1692 208.645 84.0393 209.903C85.9624 211.076 88.015 211.913 90.0342 212.901C92.0237 213.957 93.9619 215.029 96.0292 215.899C98.1264 216.67 99.8723 217.317 102.024 217.897C119.161 222.83 137.936 221.159 153.981 212.901C155.998 211.909 158.056 210.079 159.976 208.904C161.842 207.641 163.229 206.338 164.972 204.907C166.764 203.533 168.32 202.442 169.967 200.91C170.778 200.133 172.187 199.719 172.965 198.911L173.964 196.913L174.963 195.913C175.679 195.061 176.269 194.784 176.962 193.915C177.621 193.031 178.317 191.815 178.96 190.917C179.618 190.025 180.383 188.845 180.958 187.919L181.957 186.92L182.957 184.922L220.925 118.971C221.812 117.452 224.317 112.907 225.921 108.978C227.627 104.896 229.019 100.397 229.917 95.988L230.916 93.9894C231.019 93.4375 230.829 93.5455 230.916 92.9902C231.086 91.878 230.787 90.1103 230.916 88.9932C231.125 86.7522 231.919 85.2452 231.916 82.9976C231.987 80.7468 232.052 78.2421 231.916 76.0029C231.68 73.7801 231.351 71.1945 230.916 69.0081C230.552 66.8035 229.477 65.1659 228.918 63.0125C228.268 60.8922 227.752 59.0679 226.92 57.017C226.151 54.938 224.871 52.0186 223.922 50.0222C222.894 48.0672 222.122 46.8851 220.925 45.0259C219.786 43.132 218.235 40.8152 216.928 39.0304C215.554 37.2919 214.463 35.6471 212.931 34.0341C211.453 32.3782 209.565 30.5549 207.936 29.0379C206.245 27.5769 204.768 26.3464 202.94 25.0408C201.159 23.6824 199.849 22.2353 197.944 21.0438C195.986 19.9299 194.008 18.9748 191.949 18.0461C189.923 17.0495 187.064 16.8507 184.955 16.0475C183.891 15.679 183.033 15.3854 181.957 15.0483C181.419 14.8847 180.5 14.1978 179.959 14.049H178.96C174.605 12.9153 170.357 12.3381 165.971 12.0505H161.974H87.0368C84.2731 12.0803 82.2242 11.8241 77.0451 12.0505C72.6535 12.3645 68.4095 12.8922 64.056 14.049H63.0568L61.0585 15.0483C59.9858 15.3904 59.1187 15.6592 58.061 16.0475C55.9505 16.8457 54.0919 17.0479 52.066 18.0461C50.0086 18.9781 48.0289 20.9276 46.071 22.0431C44.1694 23.2412 41.8549 23.6791 40.076 25.0408C38.2491 26.348 36.7729 28.5795 35.0802 30.0371C33.4588 31.5641 31.5599 32.3749 30.0844 34.0341C28.5542 35.6487 27.4637 37.2919 26.0877 39.0304C24.7879 40.8202 23.2267 43.1304 22.091 45.0259C20.8974 46.8868 20.1148 49.0631 19.0936 51.0215C18.1469 53.0195 16.8636 54.9364 16.0961 57.017C15.2671 59.0695 14.736 60.8889 14.0977 63.0125C13.5357 65.1642 13.4616 67.8027 13.0986 70.0073C12.6675 72.1937 12.3249 73.7801 12.0994 76.0029C11.9618 78.2421 12.0265 80.7468 12.0994 82.9976C12.0977 85.2452 11.8938 87.7515 12.0994 89.9924C12.4161 92.2185 12.5797 93.8015 13.0986 95.988C14.017 100.391 15.3644 104.91 17.0952 108.978C17.5412 109.988 18.6277 110.976 19.0936 111.976C19.5727 112.964 19.5788 114.009 20.0927 114.974L21.0919 115.973V116.972L61.0585 185.921L50.0677 190.917L11.1002 122.968L10.1011 121.969L9.10191 120.969C8.50177 119.844 8.66144 118.126 8.10274 116.972C7.55565 115.806 6.62332 115.155 6.10441 113.975C4.08017 109.22 2.19283 104.147 1.10859 98.9857C0.50679 96.4225 0.470839 93.6028 0.109427 90.9917C-0.139251 88.3657 0.1144 85.6336 0.109427 82.9976C0.0298496 80.3584 -0.0580166 77.6279 0.109427 75.0036C0.364736 72.3974 0.611235 70.5704 1.10859 68.0088C1.53963 65.4274 1.44461 62.5317 2.10776 60.0148C2.84716 57.5292 4.14204 54.422 5.10525 52.0207C6.00712 49.5897 6.98867 47.3578 8.10274 45.0259C9.28977 42.7338 10.7085 41.2086 12.0994 39.0304C13.4323 36.8176 14.5708 34.1229 16.0961 32.0356C17.6975 29.9996 19.3064 27.934 21.0919 26.0401C22.821 24.1032 25.1837 22.8237 27.0869 21.0438C29.0647 19.33 30.9449 17.5845 33.0819 16.0475C35.1691 14.4561 36.8437 12.4494 39.0769 11.0513C41.368 9.73744 43.6605 9.1525 46.071 8.0535C48.45 6.8884 51.5858 5.98613 54.0643 5.05573C55.3061 4.60126 56.801 3.45717 58.061 3.05722H59.0601L61.0585 2.05797C66.163 0.71109 71.9174 0.416397 77.0451 0.0594482C79.4523 -0.062851 82.3239 0.0379791 83.0401 0.0594482H161.974C163.249 0.0892029 164.698 0.00161743 165.971 0.0594482C171.092 0.388336 176.853 0.73587 181.957 2.05797L183.956 3.05722C184.591 3.23073 185.322 2.86551 185.954 3.05722C187.216 3.45053 187.705 3.62349 188.952 4.05647C191.427 4.99019 194.566 6.89171 196.945 8.0535C199.357 9.14915 201.646 9.73743 203.939 11.0513C206.175 12.4411 207.845 14.461 209.934 16.0475C212.073 17.5828 213.954 19.3284 215.929 21.0438C217.842 22.8138 220.19 24.1082 221.924 26.0401C223.713 27.9307 225.318 29.9996 226.92 32.0356C228.453 34.1163 229.58 35.8216 230.916 38.0311C232.311 40.206 233.719 42.7371 234.913 45.0259C236.029 47.3561 237.005 49.5914 237.911 52.0207C238.879 54.4203 240.155 57.5325 240.908 60.0148C241.57 62.5333 242.474 64.4282 242.906 67.0096C243.41 69.5695 243.639 72.3974 243.906 75.0036C244.073 77.6279 243.982 80.3584 243.906 82.9976C243.904 85.6336 243.158 88.364 242.906 90.9917C242.756 92.3022 243.107 93.6848 242.906 94.9887C242.802 95.6398 242.027 96.3394 241.907 96.9872V98.9857C240.846 104.155 238.911 109.203 236.911 113.975C235.06 118.529 231.646 123.724 230.916 124.966L192.948 190.917L191.949 192.916L190.95 194.914C190.277 195.992 189.719 196.866 188.952 197.912C188.202 198.961 187.727 199.877 186.953 200.91C186.146 201.928 184.796 202.911 183.956 203.908C183.533 204.405 183.389 204.418 182.957 204.907L181.957 206.905C181.047 207.854 179.91 208.992 178.96 209.903C177.033 211.706 175.062 213.281 172.965 214.899C170.916 216.573 168.166 217.422 165.971 218.896C163.724 220.281 161.337 221.725 158.977 222.893C156.642 224.13 154.41 225.882 151.982 226.89C149.534 227.816 147.503 228.196 144.988 228.889C142.485 229.647 139.545 230.362 136.995 230.887C134.439 231.332 132.582 231.677 130.001 231.887C127.421 232.163 124.595 231.842 122.008 231.887C119.42 231.847 116.594 232.159 114.014 231.887C111.431 231.683 108.579 231.32 106.021 230.887C103.473 230.362 101.53 229.644 99.0267 228.889C96.5101 228.205 93.487 227.804 91.0334 226.89C88.6063 225.881 86.3752 224.126 84.0393 222.893C81.6752 221.728 79.2948 221.277 77.0451 219.896C74.8468 218.428 73.1009 216.568 71.0501 214.899C62.6879 208.391 55.1689 199.65 50.0677 190.917L61.0585 185.921Z" fill="url(#paint0_linear_589_10483)"/>
<path d="M76.0459 176.928C79.3633 182.561 83.7498 186.819 89.0351 190.917C90.3216 191.985 91.6541 192.973 93.0317 193.915C94.4625 194.774 96.5255 196.187 98.0276 196.913C99.4981 197.704 100.494 198.254 102.024 198.911C103.589 199.473 105.414 200.487 107.02 200.91C119.782 204.593 134.104 203.044 145.987 196.913C147.489 196.186 148.555 194.773 149.984 193.915C151.36 192.968 152.696 191.986 153.981 190.917C155.314 189.907 156.749 189.048 157.977 187.919C158.579 187.344 159.396 186.519 159.976 185.921L160.975 184.922V183.922L162.973 182.923L163.972 180.925C164.47 180.262 165.54 178.624 165.971 177.927L166.97 175.928L205.937 109.978C206.592 108.834 207.097 107.575 207.936 105.981C208.315 105.252 208.593 104.732 208.935 103.982L209.934 101.983C211.201 98.9344 212.275 95.2598 212.931 91.9909V90.9917C213.008 90.5818 212.865 90.4023 212.931 89.9924C213.054 89.1678 213.834 87.821 213.931 86.9947C214.075 85.3338 213.942 83.6659 213.931 81.9984C214.141 68.6386 208.943 55.7327 199.942 46.0252C198.847 44.7841 197.151 44.1644 195.946 43.0274C194.682 41.9483 193.31 40.9931 191.949 40.0297C190.633 39.0116 189.358 37.926 187.952 37.0319C186.495 36.2172 185.484 35.7126 183.956 35.0334C182.459 34.2864 180.517 33.6414 178.96 33.0349C178.171 32.7638 177.757 32.2868 176.962 32.0356C176.562 31.9133 176.364 31.1454 175.962 31.0364H173.964C170.736 30.1853 168.259 30.2602 164.972 30.0371H161.974H87.0368C84.3941 30.0553 82.6526 29.8702 79.0434 30.0371C75.7576 30.285 72.2763 30.1671 69.0518 31.0364L68.0526 32.0356H66.0543C65.2602 32.2918 64.8401 32.7457 64.056 33.0349C62.4959 33.6348 60.5572 34.2864 59.0601 35.0334C57.5316 35.7126 56.5207 36.2172 55.0635 37.0319C53.6609 37.9309 52.3815 39.01 51.0668 40.0297C49.7057 40.9931 48.3384 41.9532 47.0702 43.0274C45.8715 44.1727 44.166 44.7808 43.0735 46.0252C41.9263 47.2233 41.1122 48.7332 40.076 50.0222C39.1145 51.3658 37.9207 52.5963 37.0785 54.0192C36.1783 55.4058 35.8544 57.5579 35.0802 59.0155C34.3822 60.5111 33.6472 61.4574 33.0819 63.0125C32.4552 64.5412 31.5709 66.4289 31.0835 68.0088C30.674 69.6135 30.348 71.364 30.0844 73.0051C29.7545 74.6313 30.2618 76.3504 30.0844 78.0014C29.9932 79.6622 30.0214 81.3301 30.0844 82.9976C30.0728 84.6635 29.9484 86.3347 30.0844 87.9939C30.333 89.6399 30.6873 91.3723 31.0835 92.9902C31.7566 96.2541 32.7945 98.946 34.081 101.983L35.0802 103.982C35.4383 104.722 35.6964 106.254 36.0794 106.98V107.979H37.0785L76.0459 176.928L66.0543 182.923L26.0877 113.975L25.0885 111.976C24.6194 111.09 24.5287 110.883 24.0894 109.978L23.0902 106.98C21.507 103.255 19.9291 99.0112 19.0936 94.9887C18.6144 92.9923 18.3878 91.0275 18.0944 88.9932C17.912 86.9472 18.0894 85.0518 18.0944 82.9976C18.0248 80.9418 17.9717 79.0497 18.0944 77.0021C18.3033 74.9694 17.6982 73.0079 18.0944 71.0066C18.4243 68.9887 19.5821 66.981 20.0927 65.011C20.6796 63.0692 21.3301 60.8929 22.091 59.0155C22.7907 57.11 23.2256 54.8511 24.0894 53.02C25.0277 51.2285 25.991 49.7275 27.0869 48.0237C28.1247 46.2852 29.8965 44.6685 31.0835 43.0274C32.3452 41.4393 32.6785 39.5069 34.081 38.0311C35.4289 36.5108 37.5964 35.4339 39.0769 34.0341C40.6286 32.7038 42.4016 31.2303 44.0727 30.0371C45.6974 28.7894 47.3344 28.1383 49.0685 27.0393C50.859 26.0246 52.1827 24.8894 54.0643 24.0416C55.9145 23.1277 58.1329 21.7759 60.0593 21.0438C61.0258 20.6885 62.077 20.3569 63.0568 20.0446H64.056H66.0543C70.0315 18.9852 74.0223 18.3385 78.0443 18.0461C82.6995 17.8395 84.3129 18.0725 87.0368 18.0461H161.974H164.972C168.992 18.3121 172.983 19.0034 176.962 20.0446H178.96C179.456 20.1801 179.467 19.8942 179.959 20.0446C180.941 20.3536 181.983 20.7067 182.957 21.0438C184.881 21.7809 187.103 23.1277 188.952 24.0416C190.833 24.8877 192.155 26.0246 193.947 27.0393C195.685 28.1317 198.316 28.791 199.942 30.0371C201.615 31.2287 202.391 32.7005 203.939 34.0341C205.428 35.424 207.584 36.5141 208.935 38.0311C210.339 39.5069 211.67 41.4393 212.931 43.0274C214.125 44.6635 214.888 46.2885 215.929 48.0237C217.028 49.7242 217.981 51.2319 218.926 53.02C219.792 54.8494 220.224 57.1117 220.925 59.0155C221.691 60.8929 222.325 62.0733 222.923 64.0118C223.429 65.9834 224.592 67.9895 224.921 70.0073C225.323 72.007 225.7 74.9694 225.921 77.0021C226.04 79.048 225.989 80.9418 225.921 82.9976C225.927 85.0518 225.11 86.9456 224.921 88.9932C224.802 90.0128 225.074 90.9746 224.921 91.9909C224.84 92.4983 225.016 92.4861 224.921 92.9902L223.922 94.9887C223.105 99.0178 222.485 103.242 220.925 106.98C219.446 110.596 216.896 114.315 215.929 115.973L176.962 181.924V183.922L175.962 184.922C175.435 185.771 174.569 186.104 173.964 186.92L171.966 189.918C171.331 190.713 170.622 191.136 169.967 191.916L168.968 192.916L167.969 193.915C167.258 194.652 166.713 196.204 165.971 196.913C164.464 198.311 163.612 199.657 161.974 200.91C160.384 202.22 158.681 202.749 156.978 203.908C155.221 204.977 152.828 206.001 150.983 206.905C136.326 214.454 119.701 216.418 104.023 211.902C102.053 211.373 99.9474 210.605 98.0276 209.903C96.1393 209.105 93.8496 208.873 92.0326 207.905C90.1857 207.004 88.7957 204.977 87.0368 203.908C85.3308 202.756 83.6325 202.217 82.0409 200.91C75.5239 195.848 70.0845 189.796 66.0543 182.923L76.0459 176.928Z" fill="url(#paint1_linear_589_10483)"/>
<path d="M92.0326 167.934C94.279 171.707 96.5858 174.274 100.026 176.928C100.852 177.633 102.14 178.298 103.023 178.926C103.962 179.472 105.034 180.462 106.021 180.925C106.972 181.452 108.025 181.478 109.018 181.924C110.05 182.276 110.955 182.657 112.016 182.923C120.403 185.357 130.274 184.927 137.994 180.925C138.981 180.464 139.052 179.47 139.992 178.926C140.876 178.296 142.163 177.633 142.99 176.928C143.864 176.281 144.181 175.653 144.988 174.929C145.383 174.556 146.607 174.318 146.987 173.93V172.931H147.986L148.985 171.931L149.984 169.933C150.319 169.502 150.7 169.403 150.983 168.934V166.935L189.951 100.984C190.577 99.8935 191.49 98.8938 191.949 97.9865C192.198 97.4989 191.729 96.487 191.949 95.988L192.948 94.9887C193.774 92.9742 194.534 91.1217 194.947 88.9932V87.9939C194.996 87.7278 194.905 87.2624 194.947 86.9947C195.021 86.4592 195.881 85.5332 195.946 84.9961C196.025 83.917 195.966 83.0825 195.946 81.9984C196.098 73.3321 192.897 64.4119 186.953 58.0163C186.24 57.1883 184.737 56.7763 183.956 56.0177C183.12 55.3203 182.853 54.639 181.957 54.0192C181.104 53.3417 179.867 52.6173 178.96 52.0207C178.005 51.5051 176.96 51.4512 175.962 51.0215C174.996 50.524 173.971 49.4328 172.965 49.023H171.966C171.705 48.9436 171.229 49.094 170.967 49.023H169.967C167.865 48.4528 166.157 48.184 163.972 48.0237H161.974H87.0368C84.5152 48.0287 82.0784 47.9179 80.0426 48.0237C77.8609 48.2038 75.1473 48.4396 73.0484 49.023H72.0493C71.5337 49.1948 70.5599 49.8322 70.051 50.0222C69.043 50.4238 68.0216 50.5273 67.0535 51.0215C66.0538 51.4495 65.0126 51.5068 64.056 52.0207C63.1508 52.6206 61.9123 53.3417 61.0585 54.0192C60.1616 54.6373 59.9007 55.327 59.0601 56.0177C58.2843 56.7829 57.7747 58.1859 57.0618 59.0155C56.2975 59.7955 55.7581 60.1728 55.0635 61.014C54.4401 61.9114 53.6122 63.0648 53.0652 64.0118C52.46 64.9224 51.5907 66.0527 51.0668 67.0096C50.6175 68.0044 50.4307 68.9794 50.0677 70.0073C49.6416 71.0137 49.4017 71.9689 49.0685 73.0051C48.8132 74.0627 48.2301 74.927 48.0693 76.0029C47.8389 77.0671 48.202 77.9248 48.0693 79.0006C48.0246 80.0831 47.0171 80.9143 47.0702 81.9984C47.0486 83.0842 47.9997 84.9146 48.0693 85.9954C48.2517 87.063 47.7958 87.9421 48.0693 88.9932C48.4954 91.1184 49.2222 92.9808 50.0677 94.9887L51.0668 96.9872C51.3056 97.4797 51.814 97.5006 52.066 97.9865V98.9857C52.1903 99.2237 52.9126 98.718 53.0652 98.9857L92.0326 167.934L82.0409 173.93L42.0743 104.981C41.9102 104.694 42.2484 105.308 42.0743 104.981L41.0752 103.982C40.7353 103.336 40.3943 102.641 40.076 101.983L39.0769 99.985C37.9362 97.2896 37.6687 93.8772 37.0785 90.9917C36.7237 89.5622 36.3065 88.449 36.0794 86.9947C35.965 85.5271 36.0644 84.4701 36.0794 82.9976C36.0197 81.5252 36.0031 79.4705 36.0794 78.0014C36.2435 76.5421 35.7826 75.4438 36.0794 74.0043C36.3081 72.5517 36.7204 70.431 37.0785 69.0081C37.5145 67.61 38.5165 66.3662 39.0769 65.011C39.5742 63.6311 39.4609 62.3427 40.076 61.014C40.7657 59.7233 41.2719 58.2449 42.0743 57.017C42.8187 55.7544 44.223 55.2124 45.0718 54.0192C45.9936 52.8789 47.0498 51.0815 48.0693 50.0222C49.0359 48.9166 50.0091 48.0424 51.0668 47.0244C52.1925 46.0775 52.8574 45.8737 54.0643 45.0259C55.2265 44.1203 56.8226 42.828 58.061 42.0282C59.3508 41.3142 60.7065 40.6263 62.0576 40.0297C63.3773 39.367 64.6783 38.5649 66.0543 38.0311C66.7456 37.775 67.3513 38.2592 68.0526 38.0311L69.0518 37.0319H70.051C72.9008 36.2585 76.124 36.259 79.0434 36.0326C82.127 35.8872 84.4339 36.0459 87.0368 36.0326H161.974H163.972C166.892 36.2359 170.112 36.275 172.965 37.0319H173.964C174.319 37.1277 174.61 37.9237 174.963 38.0311C175.666 38.2542 176.264 37.7932 176.962 38.0311C178.334 38.5715 179.639 39.3653 180.958 40.0297C182.311 40.6263 183.665 41.3126 184.955 42.0282C186.195 42.8231 187.788 43.121 188.952 44.0267C190.157 44.8761 190.828 46.0725 191.949 47.0244C193.013 48.0358 193.978 48.9183 194.947 50.0222C202.927 58.6257 208.126 70.2037 207.936 81.9984C207.949 83.4709 208.058 85.5271 207.936 86.9947C207.849 87.7251 207.043 88.2644 206.937 88.9932C206.878 89.3567 207.003 89.6305 206.937 89.9924V90.9917C206.361 93.8804 205.058 97.2813 203.939 99.985L202.94 101.983C202.638 102.651 202.276 103.334 201.941 103.982C201.228 105.347 200.589 105.854 199.942 106.98L161.974 172.931C160.48 175.386 158.93 178.728 156.978 180.925H155.979L154.98 181.924C154.466 182.451 154.513 183.415 153.981 183.922C152.893 184.916 151.163 186.031 149.984 186.92C148.852 187.867 148.197 188.078 146.987 188.919C145.72 189.672 144.321 190.279 142.99 190.917C132.494 196.338 120.322 198.181 109.018 194.914C107.594 194.542 106.408 193.408 105.022 192.916C103.671 192.329 101.324 192.62 100.026 191.916C98.6963 191.279 98.295 189.674 97.0284 188.919C95.8148 188.081 94.1641 187.865 93.0317 186.92C88.3616 183.303 85.0002 178.942 82.0409 173.93L92.0326 167.934Z" fill="url(#paint2_linear_589_10483)"/>
<path d="M108.019 158.941C109.195 160.855 110.423 161.728 112.016 162.938C112.382 163.282 112.624 163.625 113.015 163.937C113.463 164.169 113.545 164.737 114.014 164.937C114.447 165.199 115.558 165.701 116.013 165.936C116.51 166.078 116.496 165.825 117.012 165.936C117.502 166.114 118.504 165.792 119.01 165.936C119.539 165.987 119.472 166.92 120.009 166.935C120.536 167.019 121.474 166.892 122.008 166.935C122.541 166.892 122.479 167.016 123.007 166.935C123.542 166.92 124.479 165.992 125.005 165.936C125.514 165.8 125.512 166.111 126.004 165.936C126.518 165.827 127.508 166.083 128.003 165.936C128.462 165.711 128.567 165.196 129.002 164.937C129.472 164.74 130.551 164.165 131 163.937C131.391 163.625 131.631 163.28 131.999 162.938C132.412 162.655 132.61 162.258 132.998 161.939C132.816 162.116 133.184 161.767 132.998 161.939L133.997 160.94C133.827 161.136 134.16 160.736 133.997 160.94C134.145 160.715 134.836 160.153 134.997 159.94C135.169 159.739 134.857 159.182 134.997 158.941L135.996 157.942L170.967 98.9857C173.341 94.8443 176.726 88.84 176.962 87.9939C177.348 87.0139 177.79 85.9844 177.961 84.9961C177.984 84.8739 177.941 84.1208 177.961 83.9969V82.9976C177.974 82.4986 177.987 82.5024 177.961 81.9984C178.007 81.4993 177.951 80.5056 177.961 79.9999C177.868 79.4975 178.09 79.5047 177.961 79.0006C177.904 78.4883 177.056 77.5128 176.962 77.0021C176.773 76.5113 177.185 76.4854 176.962 76.0029C176.804 75.4971 176.16 75.4977 175.962 75.0036C175.686 74.5475 175.273 73.4414 174.963 73.0051C174.711 72.5324 174.251 72.4537 173.964 72.0058C173.613 71.6092 173.343 71.3718 172.965 71.0066C172.635 70.5934 172.324 69.3865 171.966 69.0081C171.556 68.6924 171.394 69.2857 170.967 69.0081C170.577 68.6726 170.375 68.3079 169.967 68.0088C169.515 67.7923 169.437 67.1897 168.968 67.0096C168.532 66.7617 167.424 66.2235 166.97 66.0103C166.73 65.9359 166.209 66.0929 165.971 66.0103C165.85 65.9723 166.093 66.0417 165.971 66.0103C164.996 65.7227 164.057 65.1102 162.973 65.011C162.695 65.011 162.251 65.0276 161.974 65.011H87.0368C84.6362 65.0044 81.506 64.9681 81.0418 65.011C79.9642 65.1251 79.0158 65.7145 78.0443 66.0103H77.0451C76.808 66.0962 76.2797 65.9194 76.0459 66.0103C75.5884 66.2136 75.4845 66.765 75.0468 67.0096C74.5776 67.1864 73.5044 67.7956 73.0484 68.0088C72.6406 68.3112 72.4405 68.6742 72.0493 69.0081C71.6182 69.2807 71.4646 69.6999 71.0501 70.0073C70.697 70.3924 70.3825 70.5934 70.051 71.0066C69.6696 71.3685 69.4066 71.6142 69.0518 72.0058C68.7666 72.4553 68.3063 72.5341 68.0526 73.0051C67.741 73.4397 67.3287 74.5475 67.0535 75.0036C66.8529 75.4961 67.2143 75.4988 67.0535 76.0029C66.828 76.4854 66.2367 77.5105 66.0543 78.0014C65.9515 78.512 66.1156 78.4899 66.0543 79.0006C65.925 79.503 66.1405 80.4967 66.0543 80.9991C66.0543 81.5048 65.012 81.4993 65.0551 81.9984C65.0236 82.5024 66.0526 83.4962 66.0543 83.9969C66.1687 84.4844 65.9034 84.5119 66.0543 84.9961C66.2333 85.9828 66.6506 87.0156 67.0535 87.9939C67.1695 88.2352 66.954 88.7453 67.0535 88.9932C66.9308 88.7453 67.1712 89.2378 67.0535 88.9932L68.0526 89.9924C67.9714 89.8536 68.0626 90.0238 68.0526 89.9924L108.019 158.941L97.0284 164.937L57.0618 95.988C56.9806 95.8491 57.1033 96.0755 57.0618 95.988V94.9887C56.8529 94.5822 56.2599 94.3976 56.0626 93.9894V92.9902C55.3647 91.326 54.4092 89.7391 54.0643 87.9939C53.8322 87.1312 54.2235 85.8704 54.0643 84.9961C54.0162 84.1087 53.0403 82.8891 53.0652 81.9984C53.0154 81.1093 54.0345 80.8906 54.0643 79.9999C54.182 79.1157 53.8687 77.878 54.0643 77.0021C54.192 76.1147 54.8579 74.8786 55.0635 74.0043C55.347 73.1499 54.7054 72.8371 55.0635 72.0058C55.3586 71.1514 55.6963 69.836 56.0626 69.0081C56.5036 68.2181 57.5537 67.7615 58.061 67.0096C58.5103 66.2213 58.5495 65.7597 59.0601 65.011C59.642 64.3203 60.4235 63.6537 61.0585 63.0125C61.6437 62.3217 62.4218 61.6519 63.0568 61.014C63.7564 60.4521 64.3141 59.5179 65.0551 59.0155C65.7547 58.452 66.3141 57.5177 67.0535 57.017C67.8426 56.6038 69.2287 56.3631 70.051 56.0177C70.8418 55.6062 71.2253 55.354 72.0493 55.0185C72.4654 54.8615 72.6257 55.1623 73.0484 55.0185H74.0476L75.0468 54.0192C76.7693 53.5317 78.2289 54.1779 80.0426 54.0192C81.5546 53.935 84.5549 53.0216 87.0368 53.02H161.974V54.0192H162.973C164.792 54.1597 167.242 53.5433 168.968 54.0192V55.0185C169.184 55.0763 169.754 54.954 169.967 55.0185H170.967C171.787 55.3622 173.175 55.6029 173.964 56.0177C174.786 56.3648 175.175 56.6005 175.962 57.017C176.703 57.5144 177.261 58.452 177.961 59.0155C178.7 59.5212 179.266 60.4439 179.959 61.014C180.599 61.6453 181.372 61.3241 181.957 62.0133C186.881 67.3049 190.083 74.8971 189.951 81.9984C189.972 82.8891 190.007 84.1103 189.951 84.9961C189.898 85.4374 190.01 85.5558 189.951 85.9954C189.916 86.2152 188.991 86.7765 188.952 86.9947C188.62 88.7431 188.632 91.321 187.952 92.9902L186.953 93.9894C186.773 94.4059 186.161 94.5805 185.954 94.9887C185.621 95.6679 185.573 96.9139 184.955 97.9865L145.987 163.937V165.936C145.75 166.329 145.268 166.58 144.988 166.935L143.989 167.934L142.99 168.934L141.991 169.933C141.676 170.25 141.317 170.626 140.992 170.932C140.324 171.522 139.714 172.405 138.993 172.931C138.32 173.516 137.714 173.406 136.995 173.93C136.219 174.368 135.811 175.557 134.997 175.928C128.664 179.222 120.942 179.946 114.014 177.927C113.136 177.712 111.87 177.21 111.017 176.928C110.204 176.552 109.796 176.368 109.018 175.928C108.204 175.553 106.795 174.369 106.021 173.93C105.301 173.408 104.696 173.516 104.023 172.931C101.198 170.757 98.9184 168.091 97.0284 164.937L108.019 158.941Z" fill="url(#paint3_linear_589_10483)"/>
<path d="M123.007 149.948C123.01 149.939 123.028 149.941 123.007 149.948C123 149.954 123.037 149.926 123.007 149.948C122.838 150.062 122.175 149.814 122.008 149.948C121.896 150.027 122.134 150.836 122.008 150.947H121.008C120.977 150.977 121.056 150.889 121.008 150.947C120.995 150.965 121.008 150.947 121.008 150.947C121.003 150.954 121.023 150.927 121.008 150.947C120.93 151.091 121.076 150.843 121.008 150.947C120.987 151.023 121.035 150.889 121.008 150.947C121.081 150.773 121.958 150.108 122.008 149.948C122.001 150.019 122.034 149.845 122.008 149.948C121.999 150.024 122.036 149.816 122.008 149.948C121.999 149.839 122.016 149.84 122.008 149.948C121.938 149.706 122.017 150.067 122.008 149.948C122.059 150.11 121.936 150.78 122.008 150.947C121.976 150.884 122.037 151.035 122.008 150.947C121.936 150.838 122.089 151.094 122.008 150.947C121.986 150.921 122.075 151.033 122.008 150.947C122.024 150.97 122.066 150.998 122.008 150.947C121.959 150.897 122.074 151.005 122.008 150.947C121.88 150.836 121.133 150.039 121.008 149.948C120.826 149.799 121.179 150.063 121.008 149.948H120.009C120.003 149.948 120.009 149.948 120.009 149.948C119.991 149.979 120.014 149.941 120.009 149.948L158.977 82.9976C159.549 82.0143 160.277 80.5331 159.976 80.9991C159.969 80.9991 159.976 80.9991 159.976 80.9991C159.926 80.976 160.055 81.0338 159.976 80.9991C160.153 81.09 160.763 80.9132 160.975 80.9991C161.645 81.2933 161.84 81.967 161.974 81.9984H162.973C162.904 81.9918 162.105 82.0033 161.974 81.9984C161.954 81.9984 162.029 81.9868 161.974 81.9984C161.792 82.0099 162.153 81.9719 161.974 81.9984C161.87 82.0199 161.056 81.9686 160.975 81.9984C160.817 82.0397 161.083 81.9604 160.975 81.9984C160.814 82.0628 160.945 82.0149 160.975 81.9984C160.811 82.1471 161.013 81.9769 160.975 81.9984C160.859 82.1306 161.081 81.8959 160.975 81.9984C161.048 81.9257 161.914 81.0768 161.974 80.9991C161.895 81.1363 162.079 80.8504 161.974 80.9991C161.989 80.9677 161.992 80.9793 161.974 80.9991C161.964 81.0107 162.012 80.9148 161.974 80.9991C161.954 81.052 161.986 80.9545 161.974 80.9991C161.904 81.2982 162.011 82.0573 161.974 82.9976H83.0401C82.4698 82.9976 81.7641 82.9762 82.0409 82.9976C82.0376 83.0042 82.0409 82.9976 82.0409 82.9976C82.0227 82.8274 82.0476 83.1067 82.0409 82.9976V81.9984C82.021 81.853 82.0807 82.1719 82.0409 81.9984C82.0177 81.881 82.0724 81.1148 82.0409 80.9991H81.0418C81.0418 80.9991 81.055 81.0305 81.0418 80.9991C81.0252 80.9628 81.0268 80.9875 81.0418 80.9991C81.123 81.1396 81.9381 80.8537 82.0409 80.9991C82.099 81.0718 81.9746 81.9372 82.0409 81.9984C81.9365 81.8976 82.1603 82.1355 82.0409 81.9984C82.2067 82.1471 83.0003 81.9769 83.0401 81.9984C83.0699 82.0149 82.2017 82.0628 82.0409 81.9984C81.8685 81.9306 82.2946 82.0446 82.0409 81.9984C81.8602 81.9719 81.2192 82.0099 81.0418 81.9984C80.9738 81.9868 81.0666 82 81.0418 81.9984C80.9025 82.005 81.1296 81.9918 81.0418 81.9984C80.8445 82.0364 81.1528 81.9835 81.0418 81.9984C81.1595 81.9686 81.9564 82.0298 82.0409 81.9984V80.9991C82.2498 80.9132 82.866 81.09 83.0401 80.9991C83.0401 80.9991 83.0467 80.9925 83.0401 80.9991C83.0119 80.9529 83.0335 80.9909 83.0401 80.9991L123.007 149.948L113.015 155.943L73.0484 86.9947C72.9937 86.9038 73.0667 87.031 73.0484 86.9947C72.9689 86.8277 72.1272 86.1573 72.0493 85.9954C71.9896 85.8301 72.1289 86.1507 72.0493 85.9954C71.794 85.3608 72.1471 84.6051 72.0493 83.9969C71.9399 83.7027 72.1421 83.2935 72.0493 82.9976C72.0692 82.6902 71.0153 82.3091 71.0501 81.9984C71.0103 81.6926 71.0667 81.3115 71.0501 80.9991C71.1214 80.6884 71.9531 80.3155 72.0493 79.9999C72.0758 79.6776 71.9962 79.3278 72.0493 79.0006C72.1819 78.6899 71.8918 78.3087 72.0493 78.0014C72.1438 77.6725 72.9324 77.3277 73.0484 77.0021C73.2408 76.7129 72.8346 76.2788 73.0484 76.0029C73.2043 75.6888 73.8752 75.3044 74.0476 75.0036C73.794 75.2267 74.2897 74.7607 74.0476 75.0036C74.2515 74.7293 74.8346 74.2621 75.0468 74.0043C75.3203 73.8259 75.7691 73.1637 76.0459 73.0051C76.283 72.7853 76.8047 73.2067 77.0451 73.0051C77.3336 72.8927 76.7517 72.0984 77.0451 72.0058C77.307 71.8455 77.7691 72.143 78.0443 72.0058C78.1868 71.948 78.9009 72.062 79.0434 72.0058C78.9721 72.0372 79.1164 71.981 79.0434 72.0058C79.6386 71.8059 80.3322 71.0991 81.0418 71.0066C81.5176 71.0281 81.3541 70.9884 83.0401 71.0066H161.974C162.69 71.0842 163.372 71.8125 163.972 72.0058C163.893 71.9943 164.05 72.0224 163.972 72.0058C164.049 72.0257 164.897 71.9827 164.972 72.0058C164.822 71.9629 165.116 72.0604 164.972 72.0058C165.242 72.1529 165.71 71.8406 165.971 72.0058C166.263 72.1033 166.685 72.8878 166.97 73.0051C167.212 73.2067 167.734 72.7836 167.969 73.0051C168.243 73.167 167.702 73.8159 167.969 74.0043C168.185 74.2572 168.764 74.7276 168.968 75.0036C169.219 75.23 169.73 74.7557 169.967 75.0036C170.141 75.3027 169.813 75.6888 169.967 76.0029C170.178 76.2805 170.773 76.7129 170.967 77.0021C171.079 77.3293 170.875 77.6708 170.967 78.0014C171.124 78.3104 171.828 78.6899 171.966 79.0006C172.009 79.3295 171.944 79.676 171.966 79.9999C172.06 80.3155 171.889 80.6868 171.966 80.9991C171.939 81.3115 172.01 81.6926 171.966 81.9984C171.996 82.3074 171.959 82.6919 171.966 82.9976C171.944 83.148 171.977 82.8456 171.966 82.9976C171.954 83.0737 171.981 82.9216 171.966 82.9976C171.941 83.072 171.984 83.9225 171.966 83.9969C171.876 84.6051 171.205 85.3591 170.967 85.9954C170.887 86.1507 171.026 85.8301 170.967 85.9954C170.907 86.1607 171.043 86.8277 170.967 86.9947C170.852 87.2012 170.395 86.2708 169.967 86.9947L131 154.944V155.943C130.982 155.975 131.01 155.928 131 155.943H130.001C129.91 156.109 130.12 155.819 130.001 155.943C129.893 156.08 130.092 156.792 130.001 156.943C129.886 157.066 129.103 156.81 129.002 156.943C128.94 156.995 129.058 157.886 129.002 157.942C128.886 158.048 129.118 157.838 129.002 157.942C128.753 158.127 128.263 158.779 128.003 158.941C127.787 159.162 127.23 158.733 127.003 158.941C126.718 159.063 127.302 159.831 127.003 159.94C126.741 160.111 126.284 159.787 126.004 159.94C125.688 160.018 125.338 159.884 125.005 159.94C124.697 160.061 124.329 160.84 124.006 160.94C123.663 160.961 123.355 160.943 123.007 160.94C122.665 161.002 122.354 160.898 122.008 160.94C121.661 160.895 121.35 161.007 121.008 160.94C120.659 160.94 120.354 160.956 120.009 160.94C119.688 160.83 119.317 160.064 119.01 159.94C118.678 159.882 118.331 160.013 118.011 159.94C117.736 159.777 117.27 160.115 117.012 159.94C116.715 159.83 116.296 159.068 116.013 158.941C115.785 158.734 115.227 159.164 115.013 158.941C114.035 158.214 113.834 157.237 113.015 155.943L123.007 149.948Z" fill="url(#paint4_linear_589_10483)"/>
<defs>
<linearGradient id="paint0_linear_589_10483" x1="122.358" y1="0" x2="122.358" y2="232" gradientUnits="userSpaceOnUse">
<stop stop-color="#FF9A40"/>
<stop offset="1" stop-color="#FF1010"/>
</linearGradient>
<linearGradient id="paint1_linear_589_10483" x1="122.358" y1="0" x2="122.358" y2="232" gradientUnits="userSpaceOnUse">
<stop stop-color="#FF9A40"/>
<stop offset="1" stop-color="#FF1010"/>
</linearGradient>
<linearGradient id="paint2_linear_589_10483" x1="122.358" y1="0" x2="122.358" y2="232" gradientUnits="userSpaceOnUse">
<stop stop-color="#FF9A40"/>
<stop offset="1" stop-color="#FF1010"/>
</linearGradient>
<linearGradient id="paint3_linear_589_10483" x1="122.358" y1="0" x2="122.358" y2="232" gradientUnits="userSpaceOnUse">
<stop stop-color="#FF9A40"/>
<stop offset="1" stop-color="#FF1010"/>
</linearGradient>
<linearGradient id="paint4_linear_589_10483" x1="122.358" y1="0" x2="122.358" y2="232" gradientUnits="userSpaceOnUse">
<stop stop-color="#FF9A40"/>
<stop offset="1" stop-color="#FF1010"/>
</linearGradient>
</defs>
</svg>
