<svg width="225" height="213" viewBox="0 0 225 213" fill="none" xmlns="http://www.w3.org/2000/svg">
<g id="&#226;&#128;&#148;">
<g id="Ellipse 84" style="mix-blend-mode:screen" opacity="0.6">
<circle cx="112.5" cy="112.5" r="112.5" fill="url(#paint0_radial_533_4237)"/>
</g>
<circle id="Ellipse 72" cx="112" cy="109" r="72" fill="url(#paint1_linear_533_4237)"/>
<path id="Subtract" fill-rule="evenodd" clip-rule="evenodd" d="M120.458 149.668V119.007C131.107 118.304 152.405 115.485 152.405 109.841C152.361 106.978 145.911 101.192 120.458 100.949V92.138H143.028V76.8451H81.8566V92.138H104.426V100.949C78.9734 101.192 72.5231 106.978 72.4796 109.841C72.4796 115.485 93.7774 118.304 104.426 119.007V149.668H120.458ZM104.426 103.294V113.263H120.457V103.294C129.556 103.448 147.753 104.966 147.753 109.799C147.753 114.037 127.695 116.247 112.441 116.247C97.1872 116.247 77.1297 114.037 77.1297 109.799C77.1297 104.966 95.327 103.448 104.426 103.294Z" fill="white"/>
</g>
<defs>
<radialGradient id="paint0_radial_533_4237" cx="0" cy="0" r="1" gradientUnits="userSpaceOnUse" gradientTransform="translate(112.5 112.5) rotate(90) scale(112.5)">
<stop offset="0.338542" stop-color="#00E484"/>
<stop offset="1" stop-color="#00686F" stop-opacity="0"/>
</radialGradient>
<linearGradient id="paint1_linear_533_4237" x1="163.311" y1="57.4616" x2="60.0134" y2="160.759" gradientUnits="userSpaceOnUse">
<stop stop-color="#2BE899"/>
<stop offset="1" stop-color="#1C9F9D"/>
</linearGradient>
</defs>
</svg>
