<svg xmlns="http://www.w3.org/2000/svg" width="35" height="36" viewBox="0 0 35 36" fill="none">
<circle cx="17.5" cy="18" r="17.5" fill="url(#paint0_linear_533_4316)"/>
<path d="M17.9401 18.0322C20.6228 18.0322 22.7978 15.9865 22.7978 13.4629C22.7978 10.9394 20.6228 8.89368 17.9401 8.89368C15.2573 8.89368 13.0824 10.9394 13.0824 13.4629C13.0824 15.9865 15.2573 18.0322 17.9401 18.0322Z" fill="white"/>
<path d="M20.4701 19.9361H15.41C12.4752 19.9361 10.0464 22.2209 10.0464 24.9814C10.0464 25.6477 10.35 26.219 10.9572 26.5045C11.868 26.9805 13.892 27.5515 17.9401 27.5515C21.9882 27.5515 24.0121 26.9805 24.9229 26.5045C25.4289 26.219 25.8338 25.6477 25.8338 24.9814C25.8338 22.1256 23.405 19.9361 20.4701 19.9361Z" fill="white"/>
<defs>
<linearGradient id="paint0_linear_533_4316" x1="17.5513" y1="35.5" x2="17.5513" y2="0.5" gradientUnits="userSpaceOnUse">
<stop stop-color="#FF7F4D"/>
<stop offset="1" stop-color="#FF1010"/>
</linearGradient>
</defs>
</svg>