<svg width="79" height="79" viewBox="0 0 79 79" fill="none" xmlns="http://www.w3.org/2000/svg">
<g id="&#226;&#128;&#148;">
<circle id="Ellipse 72" cx="39.5" cy="39.5" r="39.5" fill="url(#paint0_linear_589_5223)"/>
<g id="Subtract">
<path fill-rule="evenodd" clip-rule="evenodd" d="M44 60V44C49.8301 43.6146 61 42.0898 61 39C60.9762 37.4327 57.9351 34.1331 44 34V29H56V21H23V29H35V34C21.0649 34.1331 18.0238 37.4327 18 39C18 42.0898 29.1699 43.6146 35 44V60H44ZM35 35V40H44V35C48.9814 35.0847 59 36.3539 59 39C59 41.3204 48.3513 42 40 42C31.6487 42 20 41.3204 20 39C20 36.3539 30.0186 35.0847 35 35Z" fill="white"/>
</g>
</g>
<defs>
<linearGradient id="paint0_linear_589_5223" x1="67.6497" y1="11.2255" x2="10.9796" y2="67.8956" gradientUnits="userSpaceOnUse">
<stop stop-color="#2BE899"/>
<stop offset="1" stop-color="#1C9F9D"/>
</linearGradient>
</defs>
</svg>
